<svg width="18" height="18" viewBox="0 0 18 18" fill="none" xmlns="http://www.w3.org/2000/svg">
    <g id="homeSvg">
        <g clip-path="url(#clip0_1_1586)">
            <path d="M14.9999 14.9999C14.9999 15.1989 14.9209 15.3896 14.7803 15.5303C14.6396 15.6709 14.4488 15.7499 14.2499 15.7499H3.74992C3.55101 15.7499 3.36025 15.6709 3.21959 15.5303C3.07894 15.3896 2.99992 15.1989 2.99992 14.9999V8.24994H0.749924L8.49517 1.20894C8.63326 1.0833 8.81323 1.01367 8.99992 1.01367C9.18661 1.01367 9.36659 1.0833 9.50467 1.20894L17.2499 8.24994H14.9999V14.9999Z"
                  fill="#2B2B2B"/>
        </g>
        <defs>
            <clipPath id="clip0_1_1586">
                <rect width="18" height="18" fill="white"/>
            </clipPath>
        </defs>
    </g>

    <g id='fileCodeSvg'>
        <g clip-path="url(#clip0_1_1599)">
            <path d="M16.5 4.28699V4.5H11V0H11.2603C11.5338 0 11.7962 0.0889101 11.9896 0.247113L16.198 3.69035C16.3913 3.8486 16.5 4.06321 16.5 4.28699ZM10.6562 5.625C10.0891 5.625 9.625 5.24531 9.625 4.78125V0H1.03125C0.461699 0 0 0.377754 0 0.84375V17.1562C0 17.6222 0.461699 18 1.03125 18H15.4688C16.0383 18 16.5 17.6222 16.5 17.1562V5.625H10.6562ZM5.29401 14.0803C5.27317 14.0984 5.24815 14.1131 5.22039 14.1234C5.19263 14.1337 5.16266 14.1394 5.13221 14.1402C5.10175 14.141 5.0714 14.1368 5.04289 14.1281C5.01437 14.1193 4.98826 14.106 4.96603 14.0889L2.17882 11.951C2.15567 11.9332 2.13722 11.9118 2.1246 11.888C2.11199 11.8641 2.10548 11.8384 2.10548 11.8125C2.10548 11.7865 2.11199 11.7608 2.1246 11.737C2.13722 11.7132 2.15567 11.6917 2.17882 11.674L4.96603 9.53606C4.98826 9.51901 5.01437 9.50571 5.04289 9.49691C5.0714 9.48812 5.10175 9.484 5.13221 9.48481C5.16266 9.48561 5.19263 9.49131 5.22039 9.50159C5.24815 9.51187 5.27317 9.52652 5.29401 9.54471L6.13529 10.2789C6.15655 10.2975 6.17304 10.3194 6.18377 10.3432C6.19451 10.3671 6.19927 10.3925 6.19778 10.4179C6.19629 10.4433 6.18858 10.4682 6.1751 10.4911C6.16161 10.514 6.14264 10.5345 6.11931 10.5513L4.36777 11.8125L6.11931 13.0737C6.14264 13.0905 6.16161 13.111 6.1751 13.1339C6.18858 13.1568 6.19629 13.1817 6.19778 13.2071C6.19927 13.2325 6.19451 13.2579 6.18377 13.2818C6.17304 13.3056 6.15655 13.3275 6.13529 13.3461L5.29401 14.0803ZM7.49809 15.8549L6.31847 15.5747C6.25937 15.5607 6.20951 15.528 6.17985 15.4839C6.15019 15.4398 6.14316 15.3878 6.1603 15.3394L8.8003 7.89947C8.81747 7.85112 8.85741 7.81032 8.91133 7.78606C8.96525 7.76179 9.02874 7.75603 9.08785 7.77006L10.2674 8.05025C10.2967 8.05721 10.324 8.06881 10.3478 8.08439C10.3716 8.09998 10.3914 8.11924 10.406 8.14109C10.4207 8.16294 10.43 8.18694 10.4334 8.21172C10.4367 8.2365 10.434 8.26158 10.4256 8.28552L7.78555 15.7255C7.77707 15.7494 7.76291 15.7718 7.74387 15.7913C7.72483 15.8107 7.70129 15.8269 7.6746 15.8389C7.6479 15.851 7.61857 15.8586 7.58829 15.8613C7.558 15.864 7.52735 15.8619 7.49809 15.8549ZM14.4071 11.951L11.6199 14.0889C11.5977 14.106 11.5716 14.1193 11.5431 14.1281C11.5145 14.1368 11.4842 14.141 11.4537 14.1402C11.4233 14.1394 11.3933 14.1337 11.3655 14.1234C11.3378 14.1131 11.3128 14.0984 11.2919 14.0803L10.4506 13.346C10.4293 13.3275 10.4129 13.3056 10.4021 13.2817C10.3914 13.2579 10.3866 13.2325 10.3881 13.2071C10.3896 13.1817 10.3973 13.1568 10.4108 13.1338C10.4243 13.1109 10.4433 13.0905 10.4666 13.0737L12.2182 11.8125L10.4666 10.5513C10.4433 10.5345 10.4243 10.514 10.4108 10.4911C10.3974 10.4682 10.3896 10.4433 10.3882 10.4179C10.3867 10.3925 10.3914 10.3671 10.4022 10.3432C10.4129 10.3194 10.4294 10.2975 10.4506 10.2789L11.292 9.54471C11.3128 9.52652 11.3378 9.51187 11.3656 9.50159C11.3934 9.49131 11.4233 9.48561 11.4538 9.48481C11.4842 9.484 11.5146 9.48812 11.5431 9.49691C11.5716 9.50571 11.5977 9.51901 11.62 9.53606L14.4072 11.674C14.4303 11.6917 14.4488 11.7132 14.4614 11.737C14.474 11.7608 14.4805 11.7865 14.4805 11.8125C14.4805 11.8385 14.474 11.8641 14.4613 11.888C14.4487 11.9118 14.4303 11.9332 14.4071 11.951Z"
                  fill="#1B1B1B"/>
        </g>
        <defs>
            <clipPath id="clip0_1_1599">
                <rect width="16.5" height="18" fill="white"/>
            </clipPath>
        </defs>
    </g>

    <g id="cvSvg">
        <g clip-path="url(#clip0_1_1601)">
            <path d="M12.7636 11.272L9.25 14.6259L5.73638 11.272C3.10301 11.381 1 13.4376 1 15.9759V16.3134C1 17.245 1.79185 18.0009 2.76786 18.0009H15.7321C16.7081 18.0009 17.5 17.245 17.5 16.3134V15.9759C17.5 13.4376 15.397 11.381 12.7636 11.272ZM1.50089 2.80635L1.73661 2.85909V4.91221C1.47879 5.05987 1.29464 5.31651 1.29464 5.62589C1.29464 5.9212 1.46406 6.16729 1.70346 6.31846L1.12891 8.5087C1.06629 8.75128 1.20625 9.00089 1.40882 9.00089H2.94833C3.15089 9.00089 3.29085 8.75128 3.22824 8.5087L2.65368 6.31846C2.89308 6.16729 3.0625 5.9212 3.0625 5.62589C3.0625 5.31651 2.87835 5.05987 2.62054 4.91221V3.06299L5.05134 3.62198C4.7346 4.22667 4.53571 4.90167 4.53571 5.62589C4.53571 8.11143 6.64609 10.1259 9.25 10.1259C11.8539 10.1259 13.9643 8.11143 13.9643 5.62589C13.9643 4.90167 13.7691 4.22667 13.4487 3.62198L16.9954 2.80635C17.6657 2.65166 17.6657 1.85362 16.9954 1.69893L9.98292 0.0817384C9.50413 -0.0272461 8.99955 -0.0272461 8.52076 0.0817384L1.50089 1.69541C0.834263 1.8501 0.834263 2.65166 1.50089 2.80635Z"
                  fill="black"/>
        </g>
        <defs>
            <clipPath id="clip0_1_1601">
                <rect width="18" height="18" fill="white"/>
            </clipPath>
        </defs>
    </g>

    <g id="portfolioSvg">
        <g clip-path="url(#clip0_1_1589)">
            <path d="M6.75 9.75V12H11.25V9.75H16.5V15C16.5 15.1989 16.421 15.3897 16.2803 15.5303C16.1397 15.671 15.9489 15.75 15.75 15.75H2.25C2.05109 15.75 1.86032 15.671 1.71967 15.5303C1.57902 15.3897 1.5 15.1989 1.5 15V9.75H6.75ZM8.25 8.25H9.75V10.5H8.25V8.25ZM5.25 3.75V1.5C5.25 1.30109 5.32902 1.11032 5.46967 0.96967C5.61032 0.829018 5.80109 0.75 6 0.75H12C12.1989 0.75 12.3897 0.829018 12.5303 0.96967C12.671 1.11032 12.75 1.30109 12.75 1.5V3.75H15.75C15.9489 3.75 16.1397 3.82902 16.2803 3.96967C16.421 4.11032 16.5 4.30109 16.5 4.5V8.25H11.25V6.75H6.75V8.25H1.5V4.5C1.5 4.30109 1.57902 4.11032 1.71967 3.96967C1.86032 3.82902 2.05109 3.75 2.25 3.75H5.25ZM6.75 2.25V3.75H11.25V2.25H6.75Z"
                  fill="#2B2B2B"/>
        </g>
        <defs>
            <clipPath id="clip0_1_1589">
                <rect width="18" height="18" fill="white"/>
            </clipPath>
        </defs>
    </g>

    <g id="photographer">
        <path d="M55.3549 72.9677H74.7127L69.7433 58.0584C68.4438 54.1597 65.1275 51.2686 61.0878 50.5113L47.8065 48.0203V44.9469C50.9881 42.6509 53.2338 39.1535 53.8854 35.1201C56.8545 34.6182 59.129 32.0454 59.129 28.9355V20.129C59.129 9.03039 50.0987 0 39 0C27.9014 0 18.871 9.03039 18.871 20.129V28.9355C18.871 32.0416 21.1342 34.6295 24.0982 35.1365C24.7524 39.1698 27.0107 42.671 30.1936 44.9657V48.0216L16.9109 50.5126C12.8725 51.2699 9.555 54.1609 8.25542 58.0597L3.28732 72.9677H22.6452V70.4516H19.2245L21.3494 61.9496L18.9087 61.3407L16.6304 70.4516H6.77719L10.6432 58.8548C11.6535 55.8228 14.2337 53.5734 17.3751 52.9834L25.389 51.4813L27.4384 60.7004C26.0998 61.2816 25.1613 62.6126 25.1613 64.1613V74.2258C25.1613 76.3066 26.8547 78 28.9355 78H49.0645C51.1454 78 52.8387 76.3066 52.8387 74.2258V64.1613C52.8387 62.6126 51.9002 61.2816 50.5629 60.7004L52.6123 51.4813L60.6261 52.9834C63.7675 53.5734 66.3466 55.8228 67.358 58.8548L71.2228 70.4516H61.3697L59.0913 61.3407L56.6507 61.9496L58.7755 70.4516H55.3549V72.9677ZM50.1377 51.017L48.4003 58.8346L47.5309 55.3548H42.037L46.9686 50.4232L50.1377 51.017ZM46.1949 60.3871H31.8051L32.4342 57.871H45.5658L46.1949 60.3871ZM39 54.834L32.7097 48.5437V46.4226C34.627 47.3057 36.7544 47.8064 39 47.8064C41.2469 47.8064 43.373 47.2995 45.2903 46.4163V48.5437L39 54.834ZM54.0968 32.4782V25.394C55.5574 25.9149 56.6129 27.2987 56.6129 28.9367C56.6129 30.5747 55.5574 31.9574 54.0968 32.4782ZM23.9032 32.4945C22.4388 31.975 21.3871 30.576 21.3871 28.9355C21.3871 27.295 22.4388 25.896 23.9032 25.3764V32.4945ZM21.3871 23.9359V20.129C21.3871 10.4168 29.2877 2.51613 39 2.51613C48.7123 2.51613 56.6129 10.4168 56.6129 20.129V23.9359C55.8681 23.3723 55.0076 22.9559 54.0565 22.7685C53.859 21.2827 52.5984 20.129 51.0598 20.129C50.2609 20.129 49.4784 20.4536 48.8494 21.0826C46.7245 23.2075 44.0323 24.5625 41.1161 25.0028L41.1966 24.8417C41.4054 24.4215 41.5161 23.9523 41.5161 23.483V23.166C41.5161 21.4915 40.1537 20.129 38.4792 20.129C37.6803 20.129 36.8978 20.4536 36.3316 21.0185C33.6809 23.668 30.1646 25.1374 26.4194 25.1613V22.6452H25.1613C23.7397 22.6452 22.4414 23.1371 21.3871 23.9359ZM26.4194 32.7097V27.6774C30.8364 27.6535 34.9855 25.9224 38.1093 22.7986C38.4125 22.4942 39 22.742 39 23.166V23.483C39 23.5635 38.9811 23.6441 38.9446 23.717L36.9645 27.6774H39C43.3932 27.6774 47.5221 25.9677 50.6899 22.7986C50.9944 22.4942 51.5807 22.742 51.5807 23.166V32.7097C51.5807 39.6466 45.937 45.2903 39 45.2903C32.063 45.2903 26.4194 39.6466 26.4194 32.7097ZM31.0314 50.4232L35.963 55.3548H30.4691L29.5997 58.8346L27.8624 51.017L31.0314 50.4232ZM28.9355 75.4839C28.2423 75.4839 27.6774 74.9203 27.6774 74.2258V64.1613C27.6774 63.4668 28.2423 62.9032 28.9355 62.9032H32.8493C31.2126 64.5035 30.1936 66.7303 30.1936 69.1936C30.1936 71.6568 31.2126 73.8836 32.8493 75.4839H28.9355ZM39 75.4839C35.5315 75.4839 32.7097 72.662 32.7097 69.1936C32.7097 65.7251 35.5315 62.9032 39 62.9032C42.4685 62.9032 45.2903 65.7251 45.2903 69.1936C45.2903 72.662 42.4685 75.4839 39 75.4839ZM50.3226 74.2258C50.3226 74.9203 49.7577 75.4839 49.0645 75.4839H45.1507C46.7874 73.8836 47.8065 71.6568 47.8065 69.1936C47.8065 66.7303 46.7874 64.5035 45.1507 62.9032H49.0645C49.7577 62.9032 50.3226 63.4668 50.3226 64.1613V74.2258Z"
              fill="#2B2B2B"/>
        <path d="M39 65.4194C36.9192 65.4194 35.2258 67.1128 35.2258 69.1936C35.2258 71.2745 36.9192 72.9678 39 72.9678C41.0808 72.9678 42.7742 71.2745 42.7742 69.1936C42.7742 67.1128 41.0808 65.4194 39 65.4194ZM39 70.4517C38.3068 70.4517 37.7419 69.8881 37.7419 69.1936C37.7419 68.4992 38.3068 67.9356 39 67.9356C39.6932 67.9356 40.2581 68.4992 40.2581 69.1936C40.2581 69.8881 39.6932 70.4517 39 70.4517Z"
              fill="#2B2B2B"/>
    </g>
</svg>
